<?xml version="1.0" encoding="UTF-8"?>
<svg width="421px" height="445px" viewBox="0 0 421 445" version="1.1" xmlns="http://www.w3.org/2000/svg" xmlns:xlink="http://www.w3.org/1999/xlink">
    <!-- Generator: Sketch 52.3 (67297) - http://www.bohemiancoding.com/sketch -->
    <title>arrow-right</title>
    <desc>Created with Sketch.</desc>
    <g id="Page-1" stroke="none" stroke-width="1" fill="none" fill-rule="evenodd">
        <path d="M409.976,196.712 L224.111,10.848 C216.884,3.615 208.219,0 198.131,0 C188.231,0 179.667,3.615 172.434,10.848 L151.023,32.26 C143.789,39.113 140.173,47.678 140.173,57.957 C140.173,68.234 143.789,76.799 151.023,83.654 L234.676,167.591 L33.677,167.591 C23.782,167.591 15.74,171.159 9.554,178.298 C3.368,185.437 0.275,194.05 0.275,204.135 L0.275,240.681 C0.275,250.769 3.369,259.379 9.554,266.518 C15.739,273.657 23.782,277.222 33.677,277.222 L234.672,277.222 L151.02,360.88 C143.786,368.108 140.17,376.77 140.17,386.861 C140.17,396.95 143.786,405.611 151.02,412.839 L172.431,434.251 C179.857,441.294 188.421,444.815 198.128,444.815 C208.027,444.815 216.69,441.294 224.109,434.251 L409.973,248.387 C417.016,241.344 420.54,232.686 420.54,222.406 C420.54,211.939 417.016,203.37 409.976,196.712 Z" id="arrow-right" fill="#FFFFFF"></path>
    </g>
</svg>